<svg width="24" height="25" viewBox="0 0 24 25" fill="none" xmlns="http://www.w3.org/2000/svg">
<g clip-path="url(#clip0_113_37)">
<path d="M23.6 7.93994H18.8V4.93994C18.8 2.73094 16.6508 0.939941 14 0.939941C11.3492 0.939941 9.2 2.73094 9.2 4.93994V7.93994H4.4L2 24.9399H26L23.6 7.93994ZM10.4 4.93994C10.4 3.28594 12.0152 1.93994 14 1.93994C15.9848 1.93994 17.6 3.28594 17.6 4.93994V7.93994H10.4V4.93994ZM4.6988 22.9399L6.5336 9.93994H9.2V11.4399C9.2 11.7159 9.4688 11.9399 9.8 11.9399C10.1312 11.9399 10.4 11.7159 10.4 11.4399V9.93994H17.6V11.4399C17.6 11.7159 17.8688 11.9399 18.2 11.9399C18.5312 11.9399 18.8 11.7159 18.8 11.4399V9.93994H21.4664L23.3012 22.9399H4.6988Z" fill="black"/>
</g>
<defs>
<clipPath id="clip0_113_37">
<rect width="24" height="24" fill="white" transform="translate(0 0.939941)"/>
</clipPath>
</defs>
</svg>
