<svg width="25" height="22" viewBox="0 0 25 22" fill="none" xmlns="http://www.w3.org/2000/svg">
<path d="M6.9465 2C10.1825 2.001 11.9195 5.491 12.6665 7.031C13.4165 5.484 15.1355 2.01 18.3925 2.01C20.4505 2.01 22.6665 3.319 22.6665 6.192C22.6665 9.634 17.9225 14.043 12.6665 19.192C7.4085 14.041 2.6665 9.633 2.6665 6.192C2.6665 3.516 4.6315 1.999 6.9465 2ZM6.9475 0C3.7645 0 0.666504 2.187 0.666504 6.192C0.666504 10.853 6.2365 15.619 12.6665 22C19.0965 15.619 24.6665 10.853 24.6665 6.192C24.6665 2.181 21.5695 0.00999999 18.3925 0.00999999C16.1885 0.00999999 13.9465 1.052 12.6665 3.248C11.3815 1.042 9.1445 0 6.9475 0Z" fill="black"/>
</svg>
